<svg width="29" height="41" viewBox="0 0 29 41" fill="none" xmlns="http://www.w3.org/2000/svg">
<path d="M12.0613 0C9.65285 0 9.65285 2.56248 9.65285 2.56248V5.12497H7.22558C7.22558 5.12497 5.51332 5.08493 3.73521 6.03585C1.95709 6.98677 0.000227059 9.39912 0.000227059 12.8124V33.3123C0.000227059 33.3123 -0.0374073 35.1241 0.856354 37.0259C1.74071 38.9177 4.00804 40.9998 7.22558 40.9998H21.6763C21.6763 40.9998 23.3791 41.0398 25.1572 40.0889C26.9354 39.138 28.9016 36.7256 28.9016 33.3123V12.8124C28.9016 9.39912 26.9354 6.98677 25.1572 6.03585C23.3791 5.08493 21.6763 5.12497 21.6763 5.12497H19.2866L19.2584 2.56248C19.2396 0 16.85 0 16.85 0L12.0613 0ZM21.6763 10.2499C23.0028 10.2499 24.0847 11.391 24.0847 12.8124V33.3123C24.0847 34.7337 23.0028 35.8748 21.6763 35.8748H7.22558C5.88964 35.8748 4.81713 34.7337 4.81713 33.3123V12.8124C4.81713 11.391 5.88964 10.2499 7.22558 10.2499H21.6763ZM7.24439 25.6248V33.3123H21.6951V25.6248H7.24439Z" fill="white"/>
</svg>
