<svg width="30" height="42" viewBox="0 0 30 42" fill="none" xmlns="http://www.w3.org/2000/svg">
<path d="M12.1175 0.0838015C9.69408 0.0957763 9.70674 2.65823 9.70674 2.65823L9.7194 5.22068L7.29594 5.23266C7.29594 5.23266 5.58228 5.20109 3.78831 6.16089C2.00381 7.12063 0.0466708 9.54268 0.0635364 12.9559L0.164829 33.4556C0.164829 33.4556 0.135915 35.2675 1.0446 37.1549C1.95332 39.0522 4.24507 41.123 7.4732 41.107L22.014 41.0352C22.014 41.0352 23.7276 41.0667 25.5216 40.1069C27.3061 39.1472 29.2632 36.7251 29.2464 33.3119L29.1451 12.8122C29.1282 9.39898 27.1472 6.9964 25.3533 6.05433C23.55 5.1123 21.8367 5.16081 21.8367 5.16081L19.4133 5.17278L19.4006 2.61033C19.3879 0.0478771 16.9645 0.0598519 16.9645 0.0598519L12.1175 0.0838015ZM7.32126 10.3576L21.862 10.2857C23.2063 10.2791 24.2911 11.4148 24.2982 12.8362L24.3995 33.3358C24.4065 34.7572 23.3329 35.9036 21.9887 35.9103L7.44788 35.9821C6.10361 35.9887 5.01878 34.853 5.01175 33.4316L4.91046 12.932C4.90344 11.5106 5.977 10.3642 7.32126 10.3576ZM7.34659 15.4825L7.43522 33.4196L21.976 33.3478L21.8874 15.4106L7.34659 15.4825Z" fill="white"/>
</svg>
