<svg width="56" height="30" viewBox="0 0 56 30" fill="none" xmlns="http://www.w3.org/2000/svg">
<path fill-rule="evenodd" clip-rule="evenodd" d="M55 12.2V17.8C55 19.3464 53.489 20.6 51.625 20.6H44.875C44.875 25.2393 40.3421 29 34.75 29H11.125C5.53313 29 1 25.2393 1 20.6V9.4C1 4.76082 5.53313 1 11.125 1H34.75C40.3421 1 44.875 4.76082 44.875 9.4H51.625C53.489 9.4 55 10.6536 55 12.2Z" stroke="white" stroke-width="1.5" stroke-linecap="round" stroke-linejoin="round"/>
<path d="M47.4711 9.40029C47.4711 8.2405 46.3087 7.30029 44.875 7.30029C43.4412 7.30029 42.2788 8.2405 42.2788 9.40029H47.4711ZM42.2788 20.6003C42.2788 21.76 43.4412 22.7003 44.875 22.7003C46.3087 22.7003 47.4711 21.76 47.4711 20.6003H42.2788ZM25.6887 7.58617C26.3619 6.56213 25.8815 5.29059 24.6153 4.7461C23.3494 4.20161 21.7774 4.59037 21.1042 5.61441L25.6887 7.58617ZM17.875 15.0003L15.5827 14.0144C15.1549 14.6654 15.1803 15.45 15.6497 16.0819C16.1191 16.7139 16.9637 17.1003 17.875 17.1003V15.0003ZM27.9999 15.0003L30.2922 15.9862C30.72 15.3352 30.6948 14.5506 30.2254 13.9187C29.756 13.2867 28.9114 12.9003 27.9999 12.9003V15.0003ZM20.1862 22.4144C19.5131 23.4384 19.9937 24.7101 21.2597 25.2544C22.5259 25.7991 24.0977 25.4101 24.7707 24.3862L20.1862 22.4144ZM42.2788 9.40029V20.6003H47.4711V9.40029H42.2788ZM21.1042 5.61441L15.5827 14.0144L20.1673 15.9862L25.6887 7.58617L21.1042 5.61441ZM17.875 17.1003H27.9999V12.9003H17.875V17.1003ZM25.7077 14.0144L20.1862 22.4144L24.7707 24.3862L30.2922 15.9862L25.7077 14.0144Z" fill="white"/>
</svg>
