<svg width="32" height="41" viewBox="0 0 32 41" fill="#ffffff" xmlns="http://www.w3.org/2000/svg">
<path d="M13.3335 0C10.6668 0 10.6668 2.56248 10.6668 2.56248V5.12497H8.00019C8.00019 5.12497 6.11479 5.08493 4.13563 6.03585C2.1669 6.98677 0.000251357 9.39912 0.000251357 12.8124V33.3123C0.000251357 33.3123 -0.041415 35.1241 0.948161 37.0259C1.93773 38.9177 4.44813 40.9998 8.00019 40.9998H24.0001C24.0001 40.9998 25.8855 41.0398 27.8646 40.0889C29.8334 39.138 32 36.7256 32 33.3123V12.8124C32 9.39912 29.8334 6.98677 27.8646 6.03585C25.8855 5.08493 24.0001 5.12497 24.0001 5.12497H21.3334V2.56248C21.3334 0 18.6668 0 18.6668 0L13.3335 0ZM13.3335 7.68746H18.6668V8.00777C20.2918 8.41816 21.7917 9.1789 23.0522 10.2499H24.0001C25.4792 10.2499 26.6667 11.391 26.6667 12.8124V33.3123C26.6667 34.7337 25.4792 35.8748 24.0001 35.8748H20.6043C19.6563 37.4563 17.8959 38.4273 16.0001 38.4373C14.1043 38.4273 12.3439 37.4563 11.396 35.8748H8.00019C6.52103 35.8748 5.33354 34.7337 5.33354 33.3123V12.8124C5.33354 11.391 6.52103 10.2499 8.00019 10.2499H8.9481C10.2085 9.18891 11.7085 8.42817 13.3335 8.0378V7.68746Z" fill="white" fill-opacity="0.57"/>
</svg>
