<svg width="32" height="41" viewBox="0 0 32 41" fill="none" xmlns="http://www.w3.org/2000/svg">
<path d="M13.3335 0C10.6668 0 10.6668 2.56248 10.6668 2.56248V5.12497H8.00019C8.00019 5.12497 6.11479 5.09494 4.14605 6.03585C2.1669 6.98677 0.000251357 9.39912 0.000251357 12.8124V33.3123C0.000251357 33.3123 -0.041415 35.1241 0.948161 37.0259C1.93773 38.9177 4.44813 40.9998 8.00019 40.9998H24.0001C24.0001 40.9998 25.8855 41.0398 27.8646 40.0889C29.8334 39.138 32 36.7256 32 33.3123V12.8124C32 9.39912 29.8334 6.98677 27.8646 6.03585C25.8855 5.08493 24.0001 5.12497 24.0001 5.12497H21.3334V2.56248C21.3334 2.56248 21.3334 0 18.6668 0L13.3335 0ZM24.0001 10.2499C25.4792 10.2499 26.6667 11.391 26.6667 12.8124V33.3123C26.6667 34.7337 25.4792 35.8748 24.0001 35.8748H8.00019C6.52103 35.8748 5.33354 34.7337 5.33354 33.3123V12.8124C5.33354 11.391 6.52103 10.2499 8.00019 10.2499H24.0001Z" fill="white"/>
<path d="M8.00018 28.1874V33.3123H24.0001V28.1874H8.00018Z" fill="#FF7800"/>
</svg>
