<svg width="30" height="41" viewBox="0 0 30 41" fill="none" xmlns="http://www.w3.org/2000/svg">
<path d="M12.3001 0C9.84016 0 9.84016 2.56248 9.84016 2.56248V5.12497H7.38017C7.38017 5.12497 5.64089 5.08493 3.82473 6.03585C1.99897 6.98677 0.000231876 9.39912 0.000231876 12.8124V33.3123C0.000231876 33.3123 -0.0382053 35.1241 0.874679 37.0259C1.78756 38.9177 4.1034 40.9998 7.38017 40.9998H22.1401C22.1401 40.9998 23.8793 41.0398 25.7051 40.0889C27.5213 39.138 29.52 36.7256 29.52 33.3123V12.8124C29.52 9.39912 27.5213 6.98677 25.7051 6.03585C23.8793 5.08493 22.1401 5.12497 22.1401 5.12497H19.6801V2.56248C19.6801 0 17.2201 0 17.2201 0L12.3001 0ZM14.7601 10.2499H22.1401C23.5046 10.2499 24.6 11.391 24.6 12.8124V33.3123C24.6 34.7337 23.5046 35.8748 22.1401 35.8748H7.38017C6.01565 35.8748 4.92019 34.7337 4.92019 33.3123V12.8124C4.92019 11.391 6.01565 10.2499 7.38017 10.2499H14.7601ZM7.38017 20.4999V33.3123H22.1401V20.4999H7.38017Z" fill="white"/>
</svg>
