<svg width="53" height="42" viewBox="0 0 53 42" fill="none" xmlns="http://www.w3.org/2000/svg">
<path d="M26.3966 14.0181C21.1941 14.0591 16.0305 16.2179 12.4586 20.3577L10.8021 22.2842C9.55974 23.7052 9.65032 25.9322 11.0221 27.2302C12.368 28.5282 14.4646 28.4189 15.7069 26.9843L17.3505 25.0715C21.5824 20.1665 31.1332 19.8385 35.6497 25.0851L37.3062 26.9843C38.5357 28.4189 40.6322 28.5282 41.991 27.2302C43.337 25.9322 43.4405 23.7052 42.1981 22.2842L40.5416 20.3714C36.8274 16.0539 31.5861 13.9771 26.3966 14.0181ZM26.5001 28.009C24.8048 28.009 23.1094 28.6922 21.8153 30.0585C19.227 32.7911 19.227 37.2179 21.8153 39.9504C24.4036 42.683 28.5966 42.683 31.1849 39.9504C33.7732 37.2179 33.7732 32.7911 31.1849 30.0585C29.8908 28.6922 28.1954 28.009 26.5001 28.009Z" fill="white"/>
<path d="M26.5 0C17.8292 0 9.1455 3.26545 2.66183 9.82368L1.01826 11.5042C-0.30177 12.8295 -0.340593 15.0429 0.914729 16.4366C2.18299 17.8302 4.27951 17.8712 5.59954 16.5459L7.25604 14.879C17.4798 4.53611 35.5202 4.53611 45.744 14.879L47.4005 16.5459C48.7205 17.8712 50.817 17.8302 52.0853 16.4366C53.3406 15.0429 53.3018 12.8295 51.9817 11.5042L50.3382 9.81002C43.8545 3.26545 35.1708 0 26.5 0Z" fill="#2E3434" fill-opacity="0.34902"/>
</svg>
