<svg width="53" height="42" viewBox="0 0 53 42" fill="none" xmlns="http://www.w3.org/2000/svg">
<path d="M26.5001 28.0092C24.8047 28.0092 23.1094 28.6923 21.8153 30.0586C19.227 32.7912 19.227 37.218 21.8153 39.9506C24.4036 42.6832 28.5966 42.6832 31.1849 39.9506C33.7732 37.218 33.7732 32.7912 31.1849 30.0586C29.8907 28.6923 28.1954 28.0092 26.5001 28.0092Z" fill="white"/>
<path d="M26.5 0C17.8292 0 9.1455 3.26545 2.66183 9.82368L1.01826 11.5042C-0.30177 12.8295 -0.340593 15.0429 0.914729 16.4366C2.18299 17.8302 4.27951 17.8712 5.59954 16.5459L7.25604 14.879C17.4798 4.53611 35.5202 4.53611 45.744 14.879L47.4005 16.5459C48.7205 17.8712 50.817 17.8302 52.0853 16.4366C53.3406 15.0429 53.3018 12.8295 51.9817 11.5042L50.3382 9.82368C43.8545 3.26545 35.1708 0 26.5 0ZM26.3965 14.0182C21.194 14.0592 16.0304 16.218 12.4585 20.3578L10.802 22.2843C9.55963 23.7053 9.65021 25.9323 11.0091 27.2303C12.3679 28.5283 14.4644 28.419 15.6939 26.9844L17.3504 25.0716C21.5822 20.1666 31.133 19.8386 35.6496 25.0716L37.3061 26.9844C38.5356 28.419 40.6321 28.5283 41.9909 27.2303C43.3368 25.9323 43.4404 23.7053 42.198 22.2843L40.5415 20.3578C36.8143 16.054 31.586 13.9772 26.3965 14.0182Z" fill="#2E3434" fill-opacity="0.34902"/>
</svg>
