<svg width="53" height="42" viewBox="0 0 53 42" fill="none" xmlns="http://www.w3.org/2000/svg">
<path d="M26.4979 0C17.8278 0 9.14479 2.79922 2.66162 8.42108L1.01818 9.86168C-0.301746 10.9978 -0.340566 12.8951 0.914658 14.0898C2.18282 15.2844 4.27918 15.3196 5.5991 14.1718L7.25548 12.7429C17.4784 3.88845 35.5174 3.88845 45.7404 12.7429L47.3968 14.1718C48.7167 15.3196 50.8131 15.2844 52.0812 14.0898C53.3365 12.8951 53.2976 10.9978 51.9777 9.86168L50.3343 8.42108C43.8511 2.79922 35.168 0 26.4979 0ZM26.3944 12.0167C21.1924 12.0519 16.0291 13.9024 12.4575 17.4512L10.8012 19.1026C9.55888 20.3207 9.64946 22.2298 11.0082 23.3424C12.367 24.4551 14.4633 24.3614 15.6927 23.1316L17.349 21.5036C21.4641 17.4161 30.5742 17.0296 35.2327 21.1171C35.6339 21.0469 36.0351 21.0117 36.4362 21.0117C38.1961 21.0117 39.8784 21.6442 41.1207 22.7685L41.8583 23.4361C41.8971 23.401 41.9359 23.3776 41.9877 23.3424C43.3335 22.2298 43.437 20.3207 42.1947 19.1026L40.5383 17.4512C36.8115 13.7619 31.5835 11.9816 26.3944 12.0167ZM26.4979 24.01C24.8027 24.01 23.1075 24.5956 21.8135 25.7669C19.2254 28.1093 19.2254 31.9041 21.8135 34.2465C24.4016 36.589 28.5943 36.589 31.1824 34.2465C31.8812 33.6141 32.3729 32.8879 32.6964 32.1032L31.7518 31.2482C29.9142 29.5851 29.4095 27.1489 30.1989 25.0407C29.086 24.3614 27.792 24.01 26.4979 24.01Z" fill="white" fill-opacity="0.34902"/>
<path d="M36.4362 24.01C35.5563 24.01 34.7152 24.3262 34.094 24.8884C32.8 26.0596 32.8 27.957 34.094 29.1282L38.3773 33.005L34.094 36.8817C32.8 38.053 32.8 39.9503 34.094 41.1216C35.3881 42.2928 37.4844 42.2928 38.7785 41.1216L43.0617 37.2448L47.345 41.1216C48.6391 42.2928 50.7354 42.2928 52.0295 41.1216C53.3235 39.9503 53.3235 38.053 52.0295 36.8817L47.7462 33.005L52.0295 29.1282C53.3235 27.957 53.3235 26.0596 52.0295 24.8884C51.4083 24.3262 50.5672 24.01 49.6873 24.01C48.8073 24.01 47.9662 24.3262 47.345 24.8884L43.0617 28.7652L38.7785 24.8884C38.1573 24.3262 37.3162 24.01 36.4362 24.01Z" fill="#FF0000"/>
</svg>
