<svg width="53" height="42" viewBox="0 0 53 42" fill="none" xmlns="http://www.w3.org/2000/svg">
<path d="M26.5 0C17.8292 0 9.1455 3.26545 2.66183 9.82368L1.01826 11.5042C-0.30177 12.8295 -0.340593 15.0429 0.914729 16.4366C2.18299 17.8302 4.27951 17.8712 5.59954 16.5459L7.25604 14.879C17.4798 4.53611 35.5202 4.53611 45.744 14.879L47.4005 16.5459C48.7205 17.8712 50.817 17.8302 52.0853 16.4366C53.3406 15.0429 53.3018 12.8295 51.9817 11.5042L50.3382 9.81002C43.8545 3.26545 35.1708 0 26.5 0ZM26.3965 14.0182C21.194 14.0592 16.0304 16.218 12.4585 20.3578L10.802 22.2843C10.2067 22.9675 9.88316 23.8692 9.93493 24.7983C9.97375 25.7274 10.362 26.6018 11.022 27.2303C11.6691 27.8588 12.5232 28.1867 13.4032 28.1321C14.2833 28.0911 15.1115 27.6812 15.7068 26.9844L17.3504 25.0716C21.5822 20.1666 31.133 19.8386 35.6496 25.0852L37.3061 26.9844C37.8885 27.6812 38.7167 28.0911 39.5968 28.1321C40.4768 28.1867 41.3309 27.8588 41.9909 27.2303C42.638 26.6018 43.0262 25.7274 43.0651 24.7983C43.1039 23.8829 42.7933 22.9675 42.198 22.2843L40.5415 20.3715C36.8273 16.054 31.586 13.9772 26.3965 14.0182ZM26.5 28.0091C24.8047 28.0091 23.1093 28.6923 21.8152 30.0586C19.2269 32.7912 19.2269 37.218 21.8152 39.9506C24.4035 42.6831 28.5965 42.6831 31.1848 39.9506C33.7731 37.218 33.7731 32.7912 31.1848 30.0586C29.8907 28.6923 28.1953 28.0091 26.5 28.0091Z" fill="#FCFCFC"/>
</svg>
