<svg width="53" height="42" viewBox="0 0 53 42" fill="none" xmlns="http://www.w3.org/2000/svg">
<path d="M26.5 0C17.8292 0 9.1455 3.55147 2.66183 10.6841L1.01826 12.5119C-0.30177 13.9533 -0.340593 16.3606 0.914729 17.8762C2.18299 19.3919 4.27951 19.4365 5.59954 17.9951L7.25604 16.1822C9.18432 14.0573 11.3973 12.3336 13.7785 11.0111C14.8786 6.6423 17.661 2.9868 21.4269 1.18878C23.2905 0.312053 25.2447 -0.0594425 27.173 0.0594353C30.3824 0.252615 33.5013 1.7683 35.8696 4.48764C37.4873 6.3451 38.6003 8.58892 39.2215 11.0111C41.6027 12.3336 43.8157 14.0573 45.744 16.1822L47.4005 17.9951C48.7205 19.4365 50.817 19.3919 52.0853 17.8762C53.3406 16.3606 53.3018 13.9533 51.9817 12.5119L50.3382 10.6841C43.8545 3.55147 35.1708 0 26.5 0ZM15.5903 19.0502C14.4515 19.9269 13.4032 20.9671 12.4585 22.141L10.802 24.2362C9.55963 25.7816 9.65021 28.2038 11.0091 29.6154C12.3679 31.0271 14.4644 30.9082 15.6939 29.348L17.3504 27.2676C18.0622 26.376 18.9163 25.633 19.874 25.0238V22.8543C19.874 21.3831 20.6116 20.2241 21.2587 19.0502H15.5903ZM38.9626 20.4024C38.8979 20.6253 38.8203 20.8482 38.7426 21.0711C37.9273 23.3298 36.5943 25.1129 35.0025 26.5395C35.2225 26.7772 35.4426 27.015 35.6496 27.2824L37.3061 29.348C38.5356 30.9082 40.6321 31.0271 41.9909 29.6154C43.3368 28.2038 43.4404 25.7816 42.198 24.2362L40.5415 22.1558C40.0368 21.5169 39.5191 20.9374 38.9626 20.4024Z" fill="white" fill-opacity="0.34902"/>
<path d="M27.0049 3.98886C25.5555 3.8997 24.0802 4.16718 22.6954 4.83587C18.9942 6.58931 16.5612 10.7649 16.5612 15.3714H23.1872C23.1872 13.826 23.9896 12.444 25.232 11.8497C26.4743 11.2701 27.885 11.5822 28.8426 12.6818C29.8003 13.7814 30.0721 15.4011 29.5673 16.8277C29.0497 18.2542 27.8461 19.1755 26.5002 19.1755C24.6755 19.1755 23.1872 20.8844 23.1872 22.9796V30.5878H29.8132V26.1001C32.4145 25.0302 34.5886 22.7716 35.6757 19.7402C37.2157 15.4903 36.3616 10.5569 33.5274 7.30258C31.7544 5.2668 29.412 4.1226 27.0049 3.98886ZM26.5002 34.3919C24.6755 34.3919 23.1872 36.1007 23.1872 38.1959C23.1872 40.2912 24.6755 42 26.5002 42C28.325 42 29.8132 40.2912 29.8132 38.1959C29.8132 36.1007 28.325 34.3919 26.5002 34.3919Z" fill="#FCFCFC"/>
</svg>
