<svg width="300" height="300" viewBox="0 0 300 300" fill="none" xmlns="http://www.w3.org/2000/svg">
<circle cx="150" cy="150" r="150" fill="#D9D9D9"/>
<path d="M88.3087 96.2388H113.691C116.729 96.2388 119.191 98.7012 119.191 101.739V240C119.191 243.037 116.729 245.499 113.691 245.5H88.3087C85.2711 245.5 82.8087 243.037 82.8087 240V101.739C82.8087 98.7012 85.2711 96.2388 88.3087 96.2388Z" fill="#F70000" stroke="black" stroke-width="3"/>
<path d="M95.7486 47.502C98.0313 43.3716 103.969 43.3716 106.251 47.502L143.711 115.283C145.922 119.282 143.029 124.186 138.46 124.186H63.5399C58.9709 124.186 56.0785 119.282 58.2885 115.283L95.7486 47.502Z" fill="#F70000" stroke="black" stroke-width="3" stroke-linejoin="round"/>
<path d="M203.826 198.799L178.443 198.822C175.406 198.824 172.941 196.364 172.938 193.327L172.815 55.0659C172.812 52.0284 175.272 49.5638 178.31 49.561L203.693 49.5383C206.73 49.5356 209.195 51.9958 209.198 55.0334L209.321 193.294C209.324 196.332 206.864 198.796 203.826 198.799Z" fill="#F70000" stroke="black" stroke-width="3"/>
<path d="M195.116 246.818C193.46 249.821 189.229 249.918 187.408 247.106L187.239 246.825L149.719 179.077C148.058 176.08 150.224 172.4 153.651 172.397L228.571 172.33C231.891 172.327 234.034 175.776 232.66 178.72L232.516 179.003L195.116 246.818Z" fill="#F70000" stroke="black" stroke-width="3"/>
<circle cx="150" cy="150" r="150" fill="#D9D9D9"/>
<path d="M88.3087 96.2388H113.691C116.729 96.2388 119.191 98.7012 119.191 101.739V240C119.191 243.037 116.729 245.499 113.691 245.5H88.3087C85.2711 245.5 82.8087 243.037 82.8087 240V101.739C82.8087 98.7012 85.2711 96.2388 88.3087 96.2388Z" fill="#F70000" stroke="black" stroke-width="3"/>
<path d="M95.7486 47.502C98.0313 43.3716 103.969 43.3716 106.251 47.502L143.711 115.283C145.922 119.282 143.029 124.186 138.46 124.186H63.5399C58.9709 124.186 56.0785 119.282 58.2885 115.283L95.7486 47.502Z" fill="#F70000" stroke="black" stroke-width="3" stroke-linejoin="round"/>
<path d="M203.826 198.799L178.443 198.822C175.406 198.824 172.941 196.364 172.938 193.327L172.815 55.0659C172.812 52.0284 175.272 49.5638 178.31 49.561L203.693 49.5383C206.73 49.5356 209.195 51.9958 209.198 55.0334L209.321 193.294C209.324 196.332 206.864 198.796 203.826 198.799Z" fill="#F70000" stroke="black" stroke-width="3"/>
<path d="M195.116 246.818C193.46 249.821 189.229 249.918 187.408 247.106L187.239 246.825L149.719 179.077C148.058 176.08 150.224 172.4 153.651 172.397L228.571 172.33C231.891 172.327 234.034 175.776 232.66 178.72L232.516 179.003L195.116 246.818Z" fill="#F70000" stroke="black" stroke-width="3"/>
<circle cx="150" cy="150" r="150" fill="#D9D9D9"/>
<path d="M88.3087 96.2388H113.691C116.729 96.2388 119.191 98.7012 119.191 101.739V240C119.191 243.037 116.729 245.499 113.691 245.5H88.3087C85.2711 245.5 82.8087 243.037 82.8087 240V101.739C82.8087 98.7012 85.2711 96.2388 88.3087 96.2388Z" fill="#F70000" stroke="black" stroke-width="3"/>
<path d="M95.7486 47.502C98.0313 43.3716 103.969 43.3716 106.251 47.502L143.711 115.283C145.922 119.282 143.029 124.186 138.46 124.186H63.5399C58.9709 124.186 56.0785 119.282 58.2885 115.283L95.7486 47.502Z" fill="#F70000" stroke="black" stroke-width="3" stroke-linejoin="round"/>
<path d="M203.826 198.799L178.443 198.822C175.406 198.824 172.941 196.364 172.938 193.327L172.815 55.0659C172.812 52.0284 175.272 49.5638 178.31 49.561L203.693 49.5383C206.73 49.5356 209.195 51.9958 209.198 55.0334L209.321 193.294C209.324 196.332 206.864 198.796 203.826 198.799Z" fill="#F70000" stroke="black" stroke-width="3"/>
<path d="M195.116 246.818C193.46 249.821 189.229 249.918 187.408 247.106L187.239 246.825L149.719 179.077C148.058 176.08 150.224 172.4 153.651 172.397L228.571 172.33C231.891 172.327 234.034 175.776 232.66 178.72L232.516 179.003L195.116 246.818Z" fill="#F70000" stroke="black" stroke-width="3"/>
<circle cx="150" cy="150" r="150" fill="#9FB09E"/>
<path d="M88.3087 96.2388H113.691C116.729 96.2388 119.191 98.7012 119.191 101.739V240C119.191 243.037 116.729 245.499 113.691 245.5H88.3087C85.2711 245.5 82.8087 243.037 82.8087 240V101.739C82.8087 98.7012 85.2711 96.2388 88.3087 96.2388Z" fill="#F70000" stroke="black" stroke-width="3"/>
<path d="M95.7486 47.502C98.0313 43.3716 103.969 43.3716 106.251 47.502L143.711 115.283C145.922 119.282 143.029 124.186 138.46 124.186H63.5399C58.9709 124.186 56.0785 119.282 58.2885 115.283L95.7486 47.502Z" fill="#F70000" stroke="black" stroke-width="3" stroke-linejoin="round"/>
<path d="M203.826 198.799L178.443 198.822C175.406 198.824 172.941 196.364 172.938 193.327L172.815 55.0659C172.812 52.0284 175.272 49.5638 178.31 49.561L203.693 49.5383C206.73 49.5356 209.195 51.9958 209.198 55.0334L209.321 193.294C209.324 196.332 206.864 198.796 203.826 198.799Z" fill="#F70000" stroke="black" stroke-width="3"/>
<path d="M195.116 246.818C193.46 249.821 189.229 249.918 187.408 247.106L187.239 246.825L149.719 179.077C148.058 176.08 150.224 172.4 153.651 172.397L228.571 172.33C231.891 172.327 234.034 175.776 232.66 178.72L232.516 179.003L195.116 246.818Z" fill="#F70000" stroke="black" stroke-width="3"/>
<path d="M218.505 73.4206C220.263 72.0838 222.824 72.3854 224.224 74.0945L243.465 97.5861C244.865 99.2952 244.574 101.764 242.816 103.101L73.4954 231.811C71.7367 233.148 69.1762 232.846 67.7763 231.137L48.5346 207.645C47.1347 205.936 47.4257 203.467 49.1844 202.13L218.505 73.4206Z" fill="black"/>
</svg>
