<svg width="47" height="41" viewBox="0 0 47 41" fill="none" xmlns="http://www.w3.org/2000/svg">
<path d="M43.8667 26.3571C45.6047 26.3571 47 27.6613 47 29.2857V38.0714C47 39.6959 45.6047 41 43.8667 41H40.7333C38.9953 41 37.6 39.6959 37.6 38.0714V29.2857C37.6 27.6613 38.9953 26.3571 40.7333 26.3571H43.8667Z" fill="white"/>
<path d="M6.26667 0C8.0047 0 9.40001 1.30413 9.40001 2.92857V38.0714C9.40001 39.6959 8.0047 41 6.26667 41H3.13334C1.39532 41 7.62939e-06 39.6959 7.62939e-06 38.0714V2.92857C7.62939e-06 1.30413 1.39532 0 3.13334 0H6.26667ZM18.8 8.78571C20.538 8.78571 21.9333 10.0898 21.9333 11.7143V38.0714C21.9333 39.6959 20.538 41 18.8 41H15.6667C13.9287 41 12.5333 39.6959 12.5333 38.0714V11.7143C12.5333 10.0898 13.9287 8.78571 15.6667 8.78571H18.8ZM31.3333 17.5714C33.0714 17.5714 34.4667 18.8756 34.4667 20.5V38.0714C34.4667 39.6959 33.0714 41 31.3333 41H28.2C26.462 41 25.0667 39.6959 25.0667 38.0714V20.5C25.0667 18.8756 26.462 17.5714 28.2 17.5714H31.3333Z" fill="white" fill-opacity="0.345"/>
</svg>
