<svg width="47" height="41" viewBox="0 0 47 41" fill="none" xmlns="http://www.w3.org/2000/svg">
<path d="M8.8125 0C10.4419 0 11.75 1.21719 11.75 2.73333V22.6034C11.314 22.849 10.9009 23.1266 10.5337 23.4682L9.31738 24.6H8.30762L7.0913 23.4682C5.98974 22.4432 4.49805 21.8667 2.9375 21.8667V2.73333C2.9375 1.21719 4.24561 0 5.875 0H8.8125ZM20.5625 8.2C22.1919 8.2 23.5 9.41719 23.5 10.9333V35.5333C23.5 37.0495 22.1919 38.2667 20.5625 38.2667H20.5396C20.5396 36.8573 19.9773 35.4586 18.8413 34.4016L17.625 33.2698V32.3302L18.8413 31.1984C21.1133 29.0844 21.1133 25.5823 18.8413 23.4682C17.7397 22.4432 16.248 21.8667 14.6875 21.8667V10.9333C14.6875 9.41719 15.9956 8.2 17.625 8.2H20.5625ZM32.3125 16.4C33.9419 16.4 35.25 17.6172 35.25 19.1333V35.5333C35.25 37.0495 33.9419 38.2667 32.3125 38.2667H29.375C27.7456 38.2667 26.4375 37.0495 26.4375 35.5333V19.1333C26.4375 17.6172 27.7456 16.4 29.375 16.4H32.3125ZM44.0625 24.6C45.6919 24.6 47 25.8172 47 27.3333V35.5333C47 37.0495 45.6919 38.2667 44.0625 38.2667H41.125C39.4956 38.2667 38.1875 37.0495 38.1875 35.5333V27.3333C38.1875 25.8172 39.4956 24.6 41.125 24.6H44.0625Z" fill="white" fill-opacity="0.34902"/>
<path d="M14.6875 24.6C15.4678 24.6 16.2136 24.8883 16.7644 25.4008C17.9119 26.4685 17.9119 28.1982 16.7644 29.2659L12.9663 32.8L16.7644 36.3341C17.9119 37.4018 17.9119 39.1315 16.7644 40.1992C15.6169 41.2669 13.7581 41.2669 12.6106 40.1992L8.8125 36.6651L5.0144 40.1992C3.86694 41.2669 2.00806 41.2669 0.860596 40.1992C-0.286865 39.1315 -0.286865 37.4018 0.860596 36.3341L4.65869 32.8L0.860596 29.2659C-0.286865 28.1982 -0.286865 26.4685 0.860596 25.4008C1.41138 24.8883 2.15723 24.6 2.9375 24.6C3.71777 24.6 4.46362 24.8883 5.0144 25.4008L8.8125 28.9349L12.6106 25.4008C13.1614 24.8883 13.9072 24.6 14.6875 24.6Z" fill="#F20D0D"/>
</svg>
