<svg width="37" height="37" viewBox="0 0 37 37" fill="none" xmlns="http://www.w3.org/2000/svg">
<path d="M31.625 1C34.3478 4.02972 36 8.00947 36 12.3682C36 16.7269 34.3478 20.7067 31.625 23.7363M5.375 1C2.65215 4.02972 1 8.00947 1 12.3682C1 16.7269 2.65215 20.7067 5.375 23.7363" stroke="white" stroke-width="2" stroke-linecap="round" stroke-linejoin="round"/>
<path d="M25.0625 6.68445C26.424 8.1993 27.25 10.1892 27.25 12.3685C27.25 14.5479 26.424 16.5379 25.0625 18.0526M11.9375 6.68445C10.5761 8.1993 9.75 10.1892 9.75 12.3685C9.75 14.5479 10.5761 16.5379 11.9375 18.0526" stroke="white" stroke-width="2" stroke-linecap="round" stroke-linejoin="round"/>
<path d="M18 12V35.6316" stroke="white" stroke-width="2" stroke-linecap="round" stroke-linejoin="round"/>
</svg>
