<svg width="35" height="35" viewBox="0 0 35 35" fill="none" xmlns="http://www.w3.org/2000/svg">
<path d="M34.5723 10.5189L24.4821 0.42722C23.9126 -0.14235 22.9893 -0.142418 22.4197 0.427084L14.1654 8.67997C12.449 8.43675 10.643 8.97474 9.32307 10.2947L6.85851 12.7593C4.62795 14.9898 4.62795 18.6038 6.85851 20.8343L8.06834 22.0442L4.65987 25.4537C4.0905 26.0233 4.09057 26.9465 4.66008 27.5159L5.04084 27.8967L0.427126 32.5105C-0.142376 33.08 -0.142376 34.0034 0.427126 34.5729C0.996628 35.1424 1.92003 35.1424 2.48953 34.5729L7.10324 29.9592L7.48489 30.3409C8.05439 30.9104 8.97779 30.9104 9.54729 30.3409L12.9562 26.932L14.1663 28.1421C16.3954 30.3712 20.0108 30.3712 22.2399 28.1421L24.7045 25.6775C26.0257 24.3574 26.5641 22.5506 26.3201 20.8334L34.5723 12.5812C35.1417 12.0117 35.1418 11.0885 34.5723 10.5189ZM8.63066 27.1326C8.55964 26.9673 8.45778 26.8122 8.32284 26.6772C8.18817 26.5426 8.03327 26.4408 7.86832 26.3698L10.1307 24.1066L10.8937 24.8696L8.63066 27.1326ZM22.6425 23.6147L20.1774 26.0797C19.0874 27.1697 17.3187 27.1697 16.2286 26.0797L13.9987 23.8497C13.9948 23.8458 13.9915 23.8415 13.9876 23.8375L11.717 21.5681L8.92085 18.7719C7.82935 17.6804 7.82935 15.9131 8.92085 14.8217L11.3854 12.3571C12.4736 11.2689 14.2378 11.2672 15.3283 12.3515L16.7975 13.8207L22.6419 19.6662C23.7334 20.7567 23.7334 22.5247 22.6425 23.6147ZM25.0652 17.9634L18.8577 11.7559L17.3969 10.2948C17.3949 10.2928 17.3929 10.2911 17.3909 10.2892L17.0361 9.9343L23.4507 3.52076L31.4788 11.55L25.0652 17.9634Z" fill="white"/>
<path d="M22.3022 7.71906L20.8439 9.17737C20.2744 9.74687 20.2744 10.6703 20.8439 11.2398C21.4134 11.8093 22.3368 11.8093 22.9063 11.2398L24.3646 9.78146C24.9341 9.21196 24.9341 8.28856 24.3646 7.71906C23.795 7.14956 22.8717 7.14956 22.3022 7.71906Z" fill="white"/>
<path d="M23.7604 14.1565C24.3299 14.726 25.2533 14.726 25.8228 14.1565L27.2811 12.6981C27.8506 12.1286 27.8506 11.2052 27.2811 10.6357C26.7116 10.0662 25.7882 10.0662 25.2187 10.6357L23.7604 12.0941C23.1909 12.6636 23.1909 13.587 23.7604 14.1565Z" fill="white"/>
</svg>
