<svg width="41" height="33" viewBox="0 0 41 33" fill="none" xmlns="http://www.w3.org/2000/svg">
<path d="M1.83281 21.24L14.4651 31.4075C22.146 26.6138 12.243 14.5959 1.83281 21.24ZM14.1448 16.7068L20.2474 21.6186C20.6412 21.9355 21.2885 21.9355 21.6822 21.6186L29.7567 15.1196C31.8287 13.4519 31.8287 10.7207 29.7567 9.05298C27.6847 7.38525 24.2914 7.38525 22.2194 9.05298L14.1448 15.552C13.7478 15.8689 13.7478 16.3872 14.1448 16.7068ZM8.17566 28.1526L6.78431 29.2725C6.29049 29.6699 5.48637 29.6699 4.98922 29.2725C4.4954 28.8723 4.4954 28.2278 4.98922 27.8276L6.38058 26.7078L0.708377 22.1423L0.711713 22.1396C0.668338 22.1047 0.628299 22.0698 0.591596 22.0322C0.0510687 21.4844 0.164513 20.6814 0.848513 20.2436C5.23613 17.4426 9.60372 17.5312 12.9537 19.0459C13.5709 19.3252 14.1515 19.6528 14.6887 20.0234L15.3527 19.489L13.0204 17.6118C12.5132 17.2036 12.2596 16.6665 12.2596 16.1321C12.2596 15.5977 12.5132 15.0605 13.0204 14.6523L14.9956 13.0625L13.2907 11.6902L12.0361 12.7C11.629 13.0276 11.0918 13.1941 10.5547 13.1941C10.0241 13.1941 9.49028 13.0303 9.07988 12.7L9.07654 12.6973L9.07321 12.7L1.17884 6.34326C0.771772 6.01562 0.564903 5.58325 0.564903 5.15088C0.564903 4.72388 0.771772 4.29419 1.18217 3.96118L1.17884 3.9585L5.48637 0.494141C5.53976 0.451172 5.59648 0.410889 5.65654 0.375977C6.03691 0.126221 6.5007 0 6.96448 0C7.495 0 8.02885 0.163818 8.43925 0.494141L8.44259 0.496826L8.44593 0.494141L16.3403 6.84814C16.7474 7.17578 16.9542 7.60815 16.9542 8.04053C16.9542 8.47021 16.7507 8.90259 16.3403 9.23291L15.0824 10.2454L16.7874 11.6177L21.0949 8.15063C22.4396 7.06836 24.2146 6.52588 25.9864 6.52588C27.7581 6.52588 29.5298 7.06836 30.8778 8.15063C32.2225 9.23291 32.8964 10.6616 32.8964 12.0876C32.8964 13.5137 32.2225 14.9397 30.8778 16.0247L26.5703 19.4863L28.2753 20.8586L29.5332 19.8489C29.9402 19.5212 30.4774 19.3547 31.0146 19.3547C31.5485 19.3547 32.0857 19.5186 32.4961 19.8489L40.3904 26.2029C40.7975 26.5305 41.0044 26.9629 41.0044 27.3953C41.0044 27.8249 40.8008 28.2573 40.3904 28.5876L36.0829 32.0547C35.6758 32.3823 35.1386 32.5488 34.6014 32.5488C34.0676 32.5488 33.5304 32.385 33.12 32.0547L25.2256 25.698C24.8186 25.3704 24.6117 24.938 24.6117 24.5056C24.6117 24.0786 24.8152 23.6489 25.2256 23.3186L25.229 23.3159L25.2256 23.3132L26.4802 22.3008L24.7752 20.9285L22.7999 22.5183C22.2928 22.9265 21.6255 23.1306 20.9615 23.1306C20.2975 23.1306 19.6302 22.9265 19.123 22.5183L17.1477 20.9285L16.4304 21.5059C17.2545 22.3813 17.8885 23.3669 18.2889 24.3928C19.3799 27.1885 18.756 30.2769 15.5429 32.3447C14.9222 32.8093 13.948 32.7959 13.344 32.3098L8.17566 28.1526ZM0.0443956 28.7246C-0.132444 28.217 0.234581 27.688 0.868533 27.5457C1.49915 27.4033 2.15646 27.6987 2.3333 28.209C2.66695 29.157 3.1274 29.874 3.72132 30.3547C4.25517 30.7871 4.92249 31.0342 5.73328 31.0879C6.38725 31.1309 6.87439 31.5928 6.82101 32.1218C6.76762 32.6482 6.19373 33.0403 5.53642 32.9973C4.14506 32.9006 2.98393 32.4656 2.03968 31.7002C1.15214 30.9858 0.491498 29.9895 0.0443956 28.7246Z" fill="white"/>
</svg>
