<svg width="56" height="46" viewBox="0 0 56 46" fill="none" xmlns="http://www.w3.org/2000/svg">
<path fill-rule="evenodd" clip-rule="evenodd" d="M10 43.4286C13.9449 43.4286 17.1429 40.5504 17.1429 37C17.1429 33.4496 13.9449 30.5714 10 30.5714C6.05514 30.5714 2.85714 33.4496 2.85714 37C2.85714 40.5504 6.05514 43.4286 10 43.4286ZM10 46C15.5229 46 20 41.9706 20 37C20 32.0294 15.5229 28 10 28C4.47716 28 0 32.0294 0 37C0 41.9706 4.47716 46 10 46Z" fill="#FF7800"/>
<path d="M13 36.5C13 37.8807 11.433 39 9.5 39C7.567 39 6 37.8807 6 36.5C6 35.1193 7.567 34 9.5 34C11.433 34 13 35.1193 13 36.5Z" fill="#FF7800"/>
<path fill-rule="evenodd" clip-rule="evenodd" d="M45 43.4286C49.3393 43.4286 52.8571 40.5504 52.8571 37C52.8571 33.4496 49.3393 30.5714 45 30.5714C40.6607 30.5714 37.1429 33.4496 37.1429 37C37.1429 40.5504 40.6607 43.4286 45 43.4286ZM45 46C51.0751 46 56 41.9706 56 37C56 32.0294 51.0751 28 45 28C38.9249 28 34 32.0294 34 37C34 41.9706 38.9249 46 45 46Z" fill="#FF7800"/>
<path d="M48 36.5C48 37.8807 46.8807 39 45.5 39C44.1193 39 43 37.8807 43 36.5C43 35.1193 44.1193 34 45.5 34C46.8807 34 48 35.1193 48 36.5Z" fill="#FF7800"/>
<path fill-rule="evenodd" clip-rule="evenodd" d="M45 15.4286C49.3393 15.4286 52.8571 12.5504 52.8571 9C52.8571 5.44963 49.3393 2.57143 45 2.57143C40.6607 2.57143 37.1429 5.44963 37.1429 9C37.1429 12.5504 40.6607 15.4286 45 15.4286ZM45 18C51.0751 18 56 13.9706 56 9C56 4.02944 51.0751 0 45 0C38.9249 0 34 4.02944 34 9C34 13.9706 38.9249 18 45 18Z" fill="#FF7800"/>
<path d="M48 9C48 10.1046 46.8807 11 45.5 11C44.1193 11 43 10.1046 43 9C43 7.89543 44.1193 7 45.5 7C46.8807 7 48 7.89543 48 9Z" fill="#FF7800"/>
<path fill-rule="evenodd" clip-rule="evenodd" d="M10 15.4286C13.9449 15.4286 17.1429 12.5504 17.1429 9C17.1429 5.44963 13.9449 2.57143 10 2.57143C6.05514 2.57143 2.85714 5.44963 2.85714 9C2.85714 12.5504 6.05514 15.4286 10 15.4286ZM10 18C15.5229 18 20 13.9706 20 9C20 4.02944 15.5229 0 10 0C4.47716 0 0 4.02944 0 9C0 13.9706 4.47716 18 10 18Z" fill="#FF7800"/>
<path d="M13 9C13 10.1046 11.433 11 9.5 11C7.567 11 6 10.1046 6 9C6 7.89543 7.567 7 9.5 7C11.433 7 13 7.89543 13 9Z" fill="#FF7800"/>
<path d="M10 38L19.1 24.2245L10.7 11L27.5 17.6123L44.3 11L35.9 24.2245L45 38L27.5 30.8368L10 38Z" fill="#FF7800"/>
</svg>
