<svg width="68" height="31" viewBox="0 0 68 31" fill="none" xmlns="http://www.w3.org/2000/svg">
<rect width="68" height="31" rx="5" fill="#D9D9D9"/>
<path d="M12.6698 11.0909H15.5143L18.5186 18.4205H18.6464L21.6507 11.0909H24.4951V22H22.2579V14.8995H22.1673L19.3442 21.9467H17.8208L14.9976 14.8729H14.907V22H12.6698V11.0909ZM36.4203 16.5455C36.4203 17.7351 36.1948 18.7472 35.7438 19.5817C35.2963 20.4162 34.6855 21.0536 33.9114 21.494C33.1408 21.9308 32.2743 22.1491 31.312 22.1491C30.3425 22.1491 29.4725 21.929 28.7019 21.4886C27.9313 21.0483 27.3223 20.4109 26.8748 19.5763C26.4274 18.7418 26.2037 17.7315 26.2037 16.5455C26.2037 15.3558 26.4274 14.3438 26.8748 13.5092C27.3223 12.6747 27.9313 12.0391 28.7019 11.6023C29.4725 11.1619 30.3425 10.9418 31.312 10.9418C32.2743 10.9418 33.1408 11.1619 33.9114 11.6023C34.6855 12.0391 35.2963 12.6747 35.7438 13.5092C36.1948 14.3438 36.4203 15.3558 36.4203 16.5455ZM34.0819 16.5455C34.0819 15.7749 33.9664 15.125 33.7356 14.5959C33.5083 14.0668 33.187 13.6655 32.7715 13.392C32.356 13.1186 31.8695 12.9819 31.312 12.9819C30.7544 12.9819 30.2679 13.1186 29.8525 13.392C29.437 13.6655 29.1138 14.0668 28.883 14.5959C28.6557 15.125 28.5421 15.7749 28.5421 16.5455C28.5421 17.3161 28.6557 17.9659 28.883 18.495C29.1138 19.0241 29.437 19.4254 29.8525 19.6989C30.2679 19.9723 30.7544 20.109 31.312 20.109C31.8695 20.109 32.356 19.9723 32.7715 19.6989C33.187 19.4254 33.5083 19.0241 33.7356 18.495C33.9664 17.9659 34.0819 17.3161 34.0819 16.5455ZM41.996 22H38.1288V11.0909H42.028C43.1253 11.0909 44.0699 11.3093 44.8618 11.7461C45.6537 12.1793 46.2627 12.8026 46.6888 13.6158C47.1185 14.429 47.3334 15.402 47.3334 16.5348C47.3334 17.6712 47.1185 18.6477 46.6888 19.4645C46.2627 20.2812 45.6501 20.908 44.8511 21.3448C44.0557 21.7816 43.104 22 41.996 22ZM40.4353 20.0238H41.9001C42.5819 20.0238 43.1555 19.9031 43.6207 19.6616C44.0894 19.4165 44.441 19.0384 44.6753 18.527C44.9133 18.0121 45.0322 17.348 45.0322 16.5348C45.0322 15.7287 44.9133 15.07 44.6753 14.5586C44.441 14.0472 44.0912 13.6708 43.626 13.4293C43.1608 13.1879 42.5873 13.0671 41.9055 13.0671H40.4353V20.0238ZM49.0419 22V11.0909H56.3928V12.9925H51.3484V15.592H56.0146V17.4936H51.3484V20.0984H56.4141V22H49.0419Z" fill="#3A2D2D" fill-opacity="0.78"/>
</svg>
